
            <svg xmlns="http://www.w3.org/2000/svg">
                <filter id="grayscale">
                    <feColorMatrix type="saturate" values="0"/>
                </filter>
                <g filter="url(#grayscale)">
                    <svg xmlns="http://www.w3.org/2000/svg" viewBox="-43.285 96.20995330810547 661.5700073242188 383.64004703521726"> <svg version="1.1" xmlns="http://www.w3.org/2000/svg" xmlns:xlink="http://www.w3.org/1999/xlink" x="129.99898474121093" y="166.20995330810547" viewBox="142.625 449.09765625 1314.7578125 681.15234375" xml:space="preserve" height="163.19560732174068" width="315.001220703125" preserveAspectRatio="xMinYMin" enable-background="new 0 0 1600 1600" style="overflow: visible;"><path d="M518.1,705.6l0.5-26.3c0.3-16.9,12-31.4,28.4-35.4l15.5-3.8l0,0L148.7,492.6c-3.8-1.4-7.4,2.6-5.6,6.3l16.4,33.6    c15.6,31.9,42.9,56.6,76.2,68.9L518.1,705.6z" style="fill: #cfb879; fill-opacity: 1;"></path><path d="M611.2,913.6c-0.3-0.3-0.7-0.6-1-1l-26.6-27.5c-5.6-5.8-9-13.1-10.1-20.6l-250.8-90.5c-3.8-1.4-7.4,2.6-5.6,6.3l16.4,33.6    c15.6,31.9,42.9,56.6,76.2,68.9l201.7,76.6C611.3,944,611.2,928.7,611.2,913.6z" style="fill: #cfb879; fill-opacity: 1;"></path><path d="M587.3,825.3c-6.2-10.4-11.7-21.3-16.2-32.6c-4.5-11.2-8.2-22.6-10.9-34.2l-15.3-4.4c-11.1-3.2-19.8-11.2-24-21.4    L194.4,616.5c-3.8-1.4-7.4,2.6-5.6,6.3l16.4,33.6c15.6,31.9,42.9,56.6,76.2,68.9l299.5,110.6L587.3,825.3z" style="fill: #cfb879; fill-opacity: 1;"></path><path d="M1277.4,773.9L1016.6,868c-0.3,9.5-4.3,18.9-11.5,25.8l-20.3,19.3c0.2,15.4,0.4,31.2,0.3,47.5l205.2-77.9    c33.3-12.3,60.6-37,76.2-68.9l16.4-33.6C1284.7,776.5,1281.2,772.6,1277.4,773.9z" style="fill: #cfb879; fill-opacity: 1;"></path><path d="M1451.3,492.6l-429.7,153.1l29.9,8.6c16.2,4.7,27.3,19.7,26.9,36.6l-0.3,16.1l286.2-105.7c33.3-12.3,60.6-37,76.2-68.9    l16.4-33.6C1458.7,495.2,1455.2,491.2,1451.3,492.6z" style="fill: #cfb879; fill-opacity: 1;"></path><path d="M1405.6,616.5l-328.3,117c-2.1,15-13.1,27.5-28.1,31.1l-32.8,8c-2.7,8.9-5.9,17.7-9.7,26.3c-3.2,7.2-6.7,14.3-10.5,21.1    l11.1,20.2l311.4-115c33.3-12.3,60.6-37,76.2-68.9l16.4-33.6C1413,619.1,1409.5,615.1,1405.6,616.5z" style="fill: #cfb879; fill-opacity: 1;"></path><path id="Layer_1" d="M960.1,870.1c0-5.8-1.9-11.6-6.5-16.2c-1.3-0.6-1.9-1.9-3.2-3.2c-12.5-7.6-24.8-14.9-36.9-22   c-27.1,35.6-69.9,58.6-118.1,58.6c-46.4,0-87.8-21.3-115-54.7c-10.4,6.2-20.9,12.6-31.5,19.4c-0.6,1.3-1.9,1.9-3.2,3.2   c-2.6,3.2-3.9,7.1-5.2,10.4c-0.6,2.6-1.3,5.8-1.3,9.1c0,51.1,0,102.9,1.3,154c0,8.4,4.5,16.2,11.6,20.7   c36.2,22,69.9,40.8,106.1,60.8c11,6.5,20.7,13.6,31.7,18.1c6.5,2.6,14.2,2.6,20.7,0c12.3-5.8,23.3-12.3,34.9-20.1   c1.9-1.3,3.9-1.3,5.8-2.6c31.7-18.8,60.8-35.6,92.5-53.7c8.4-5.2,16.2-12.9,16.2-22.6C962.1,976.2,961.4,923.2,960.1,870.1z" style="fill: #838b8d; fill-opacity: 1;"></path><path d="M787.8,492.9c-116.7,1.3-210.3,96.9-209.1,213.6c1.3,116.7,96.9,210.3,213.6,209.1s210.3-96.9,209.1-213.6     S904.6,491.7,787.8,492.9z M791.8,861.8c-87,0.9-158.3-68.8-159.2-155.8s68.8-158.3,155.8-159.2s158.3,68.8,159.2,155.8     S878.8,860.8,791.8,861.8z" style="fill: #ffffff; fill-opacity: 1;"></path><path d="M645.1,594.8l44-43.9c5.7-5.7,4.5-15.3-2.5-19.3l-40.1-23.4c-4.8-2.8-10.9-2-14.9,1.9l-27.1,27c-3.9,3.9-4.8,10-2,14.9     l23.3,40.2C629.8,599.3,639.4,600.5,645.1,594.8z" style="fill: #ffffff; fill-opacity: 1;"></path><path d="M907.2,857.5l44-43.9c5.7-5.7,15.3-4.4,19.3,2.5l23.3,40.2c2.8,4.8,2,10.9-2,14.9l-27.1,27c-3.9,3.9-10.1,4.7-14.9,1.9     l-40.1-23.4C902.7,872.7,901.5,863.2,907.2,857.5z" style="fill: #ffffff; fill-opacity: 1;"></path><path d="M612.7,735.8l-0.2-62.1c0-8.1-7.7-13.9-15.5-11.8l-44.9,12.1c-5.4,1.4-9.1,6.3-9.1,11.9l0.1,38.3     c0,5.6,3.8,10.4,9.2,11.9l44.9,11.8C605.1,749.8,612.7,743.9,612.7,735.8z" style="fill: #ffffff; fill-opacity: 1;"></path><path d="M983.7,734.7l-0.2-62.1c0-8.1,7.6-14,15.4-11.9l44.9,11.8c5.4,1.4,9.2,6.3,9.2,11.9l0.1,38.3c0,5.6-3.7,10.5-9.1,11.9     l-44.9,12.1C991.4,748.7,983.8,742.8,983.7,734.7z" style="fill: #ffffff; fill-opacity: 1;"></path><path d="M690,858.1l-44.2-43.6c-5.8-5.7-15.3-4.4-19.3,2.7l-23,40.3c-2.8,4.8-1.9,10.9,2,14.9l27.2,26.9c4,3.9,10.1,4.7,14.9,1.8     l40-23.6C694.5,873.3,695.7,863.8,690,858.1z" style="fill: #ffffff; fill-opacity: 1;"></path><path d="M950.5,593.9l-44.2-43.6c-5.8-5.7-4.6-15.3,2.4-19.4l40-23.6c4.8-2.8,10.9-2.1,14.9,1.8l27.2,26.9c4,3.9,4.8,10,2,14.9     l-23,40.3C965.8,598.3,956.3,599.6,950.5,593.9z" style="fill: #ffffff; fill-opacity: 1;"></path><path d="M831.2,889.4l-62.1,0.7c-8.1,0.1-13.9,7.8-11.7,15.6l12.4,44.8c1.5,5.4,6.4,9.1,12,9L820,959c5.6-0.1,10.4-3.9,11.8-9.3     l11.4-45C845.2,896.9,839.3,889.3,831.2,889.4z" style="fill: #ffffff; fill-opacity: 1;"></path><path d="M827.2,518.4l-62.1,0.7c-8.1,0.1-14-7.5-12.1-15.3l11.4-45c1.4-5.4,6.2-9.2,11.8-9.3l38.3-0.4c5.6-0.1,10.5,3.6,12,9     l12.4,44.8C841,510.5,835.2,518.3,827.2,518.4z" style="fill: #ffffff; fill-opacity: 1;"></path><g id="Layer_2" style=""></g></svg> <svg y="397.21" viewBox="0.9100000262260437 3.0399999618530273 521.5700073242188 12.640000343322754" x="26.715000000000003" height="12.640000343322754" width="521.5700073242188" style="overflow: visible;"><g fill="#9fafc5" fill-opacity="1" style=""><path d="M7.57 3.04L7.57 3.04Q8.98 3.04 10.19 3.54Q11.41 4.03 12.30 4.90Q13.20 5.76 13.71 6.93Q14.22 8.10 14.22 9.46L14.22 9.46Q14.22 10.75 13.70 11.89Q13.18 13.02 12.29 13.86Q11.39 14.70 10.18 15.19Q8.96 15.68 7.57 15.68L7.57 15.68Q6.18 15.68 4.96 15.19Q3.74 14.70 2.85 13.86Q1.95 13.02 1.43 11.89Q0.91 10.75 0.91 9.46L0.91 9.46Q0.91 8.10 1.42 6.93Q1.94 5.76 2.83 4.90Q3.73 4.03 4.94 3.54Q6.16 3.04 7.57 3.04ZM7.57 14.80L7.57 14.80Q8.62 14.80 9.46 14.43Q10.30 14.06 10.90 13.38Q11.50 12.69 11.82 11.70Q12.14 10.72 12.14 9.50L12.14 9.50Q12.14 8.22 11.82 7.19Q11.50 6.16 10.91 5.43Q10.32 4.70 9.47 4.31Q8.62 3.92 7.57 3.92L7.57 3.92Q6.51 3.92 5.66 4.31Q4.82 4.70 4.22 5.43Q3.63 6.16 3.31 7.19Q2.99 8.22 2.99 9.50L2.99 9.50Q2.99 10.72 3.31 11.70Q3.63 12.69 4.22 13.38Q4.82 14.06 5.66 14.43Q6.51 14.80 7.57 14.80ZM27.70 6.29L27.70 6.29Q27.70 7.14 27.42 7.81Q27.15 8.48 26.57 8.94Q25.98 9.41 25.05 9.66Q24.11 9.92 22.77 9.92L22.77 9.92L21.33 9.92L21.33 13.01Q21.33 13.60 21.40 13.98Q21.47 14.35 21.70 14.56Q21.94 14.77 22.38 14.84Q22.82 14.91 23.54 14.91L23.54 14.91L23.54 15.52L17.89 15.52L17.89 14.91Q18.45 14.90 18.79 14.82Q19.14 14.74 19.33 14.54Q19.52 14.35 19.58 14Q19.65 13.65 19.65 13.09L19.65 13.09L19.65 5.63Q19.65 5.07 19.59 4.73Q19.54 4.38 19.37 4.18Q19.20 3.98 18.88 3.91Q18.56 3.84 18.05 3.81L18.05 3.81L18.05 3.20L23.07 3.20Q25.28 3.20 26.49 4.02Q27.70 4.83 27.70 6.29ZM21.33 4.22L21.33 9.12L22.46 9.12Q24.06 9.12 24.84 8.50Q25.62 7.89 25.62 6.48L25.62 6.48Q25.62 5.12 25 4.54Q24.38 3.95 23.07 3.95L23.07 3.95L21.60 3.95Q21.33 3.95 21.33 4.22L21.33 4.22ZM34.56 4.16L34.56 8.75Q35.42 8.75 36.01 8.65Q36.59 8.54 36.94 8.32Q37.28 8.10 37.43 7.74Q37.58 7.39 37.58 6.91L37.58 6.91L38.14 6.91L38.14 11.28L37.58 11.28Q37.58 10.80 37.45 10.45Q37.31 10.10 36.97 9.86Q36.62 9.63 36.04 9.51Q35.46 9.39 34.56 9.39L34.56 9.39L34.56 13.01Q34.56 13.54 34.69 13.88Q34.82 14.22 35.13 14.44Q35.44 14.66 35.95 14.74Q36.46 14.83 37.22 14.83L37.22 14.83Q38.06 14.83 38.66 14.71Q39.25 14.59 39.65 14.30Q40.05 14.02 40.29 13.54Q40.53 13.07 40.69 12.37L40.69 12.37L41.30 12.37L41.06 15.52L31.12 15.52L31.12 14.91Q31.68 14.90 32.02 14.82Q32.37 14.74 32.56 14.54Q32.75 14.35 32.82 14Q32.88 13.65 32.88 13.09L32.88 13.09L32.88 5.63Q32.88 5.07 32.82 4.73Q32.77 4.38 32.60 4.18Q32.43 3.98 32.11 3.91Q31.79 3.84 31.28 3.81L31.28 3.81L31.28 3.20L40.53 3.20L40.67 6.02L40.11 6.02Q40.02 5.38 39.80 4.97Q39.58 4.56 39.21 4.32Q38.83 4.08 38.26 3.98Q37.68 3.89 36.86 3.89L36.86 3.89L34.83 3.89Q34.56 3.89 34.56 4.16L34.56 4.16ZM56.32 15.68L55.36 15.68L47.76 5.66L47.70 5.66L47.70 12.50Q47.70 13.30 47.75 13.76Q47.81 14.22 47.98 14.48Q48.14 14.74 48.46 14.82Q48.77 14.90 49.28 14.91L49.28 14.91L49.28 15.52L44.98 15.52L44.98 14.91Q45.54 14.90 45.88 14.81Q46.22 14.72 46.42 14.48Q46.61 14.24 46.67 13.80Q46.74 13.36 46.74 12.61L46.74 12.61L46.74 6.11Q46.74 5.44 46.68 5Q46.62 4.56 46.46 4.30Q46.29 4.05 45.97 3.94Q45.65 3.84 45.14 3.81L45.14 3.81L45.14 3.20L48.30 3.20L55.30 12.53L55.36 12.53L55.36 6.22Q55.36 5.44 55.30 4.97Q55.25 4.50 55.08 4.24Q54.91 3.98 54.60 3.90Q54.29 3.82 53.78 3.81L53.78 3.81L53.78 3.20L58.08 3.20L58.08 3.81Q57.52 3.82 57.18 3.91Q56.83 4 56.64 4.24Q56.45 4.48 56.38 4.93Q56.32 5.38 56.32 6.11L56.32 6.11L56.32 15.68ZM68.93 15.34L68.69 11.76L69.28 11.76Q69.39 12.48 69.70 13.06Q70.02 13.63 70.49 14.03Q70.96 14.43 71.58 14.65Q72.19 14.86 72.91 14.86L72.91 14.86Q74.10 14.86 74.78 14.30Q75.47 13.74 75.47 12.78L75.47 12.78Q75.47 12.38 75.34 12.05Q75.20 11.71 74.88 11.40Q74.56 11.09 74.02 10.78Q73.49 10.48 72.67 10.13L72.67 10.13Q71.68 9.70 71.01 9.30Q70.34 8.90 69.94 8.46Q69.54 8.03 69.37 7.54Q69.20 7.06 69.20 6.43L69.20 6.43Q69.20 5.70 69.46 5.07Q69.73 4.45 70.21 3.99Q70.69 3.54 71.34 3.29Q72 3.04 72.78 3.04L72.78 3.04Q73.49 3.04 74.10 3.26Q74.70 3.49 75.33 3.98L75.33 3.98L75.74 3.26L76.11 3.26L76.29 6.45L75.70 6.45Q75.31 5.14 74.58 4.50Q73.86 3.86 72.83 3.86L72.83 3.86Q71.86 3.86 71.28 4.34Q70.70 4.82 70.70 5.63L70.70 5.63Q70.70 6.02 70.83 6.33Q70.96 6.64 71.25 6.92Q71.54 7.20 72 7.48Q72.46 7.76 73.15 8.06L73.15 8.06Q74.34 8.59 75.12 9.05Q75.90 9.50 76.37 9.96Q76.83 10.42 77.02 10.92Q77.22 11.42 77.22 12.05L77.22 12.05Q77.22 12.85 76.90 13.52Q76.58 14.19 76 14.67Q75.42 15.15 74.62 15.42Q73.82 15.68 72.86 15.68L72.86 15.68Q71.95 15.68 71.22 15.42Q70.50 15.17 69.74 14.56L69.74 14.56L69.30 15.34L68.93 15.34ZM87.89 3.04L87.89 3.04Q89.30 3.04 90.51 3.54Q91.73 4.03 92.62 4.90Q93.52 5.76 94.03 6.93Q94.54 8.10 94.54 9.46L94.54 9.46Q94.54 10.75 94.02 11.89Q93.50 13.02 92.61 13.86Q91.71 14.70 90.50 15.19Q89.28 15.68 87.89 15.68L87.89 15.68Q86.50 15.68 85.28 15.19Q84.06 14.70 83.17 13.86Q82.27 13.02 81.75 11.89Q81.23 10.75 81.23 9.46L81.23 9.46Q81.23 8.10 81.74 6.93Q82.26 5.76 83.15 4.90Q84.05 4.03 85.26 3.54Q86.48 3.04 87.89 3.04ZM87.89 14.80L87.89 14.80Q88.94 14.80 89.78 14.43Q90.62 14.06 91.22 13.38Q91.82 12.69 92.14 11.70Q92.46 10.72 92.46 9.50L92.46 9.50Q92.46 8.22 92.14 7.19Q91.82 6.16 91.23 5.43Q90.64 4.70 89.79 4.31Q88.94 3.92 87.89 3.92L87.89 3.92Q86.83 3.92 85.98 4.31Q85.14 4.70 84.54 5.43Q83.95 6.16 83.63 7.19Q83.31 8.22 83.31 9.50L83.31 9.50Q83.31 10.72 83.63 11.70Q83.95 12.69 84.54 13.38Q85.14 14.06 85.98 14.43Q86.83 14.80 87.89 14.80ZM109.06 7.33L109.06 10.56Q109.06 11.82 108.81 12.78Q108.56 13.74 108.01 14.38Q107.46 15.02 106.58 15.35Q105.70 15.68 104.45 15.68L104.45 15.68Q103.26 15.68 102.38 15.45Q101.50 15.22 100.91 14.68Q100.32 14.14 100.03 13.28Q99.74 12.42 99.74 11.15L99.74 11.15L99.74 6.93Q99.74 5.74 99.69 5.10Q99.63 4.46 99.36 4.16L99.36 4.16Q99.17 3.95 98.84 3.88Q98.51 3.81 97.97 3.81L97.97 3.81L97.97 3.20L103.42 3.20L103.42 3.81Q102.88 3.81 102.54 3.87Q102.21 3.94 102.02 4.19L102.02 4.19Q101.79 4.48 101.73 5.11Q101.66 5.74 101.66 6.93L101.66 6.93L101.66 11.28Q101.66 12.10 101.83 12.73Q102 13.36 102.38 13.80Q102.77 14.24 103.38 14.46Q104 14.69 104.90 14.69L104.90 14.69Q106.50 14.69 107.30 13.80Q108.10 12.91 108.10 11.18L108.10 11.18L108.10 7.33Q108.10 5.90 107.98 5.17Q107.87 4.43 107.57 4.13L107.57 4.13Q107.34 3.92 107.01 3.86Q106.67 3.81 106.18 3.81L106.18 3.81L106.18 3.20L110.82 3.20L110.82 3.81Q110.30 3.81 109.98 3.89Q109.65 3.97 109.46 4.24L109.46 4.24Q109.22 4.58 109.14 5.29Q109.06 6 109.06 7.33L109.06 7.33ZM124.05 6.29L124.05 6.29Q124.05 7.57 123.28 8.42Q122.51 9.26 120.83 9.55L120.83 9.55L124.37 13.81Q124.80 14.34 125.32 14.57Q125.84 14.80 126.56 14.91L126.56 14.91L126.56 15.52L123.47 15.52L119.55 10.50Q119.34 10.22 119.16 10.06Q118.98 9.90 118.78 9.82Q118.58 9.73 118.31 9.70Q118.05 9.68 117.68 9.68L117.68 9.68L117.68 13.01Q117.68 13.60 117.75 13.98Q117.82 14.35 118.06 14.56Q118.29 14.77 118.73 14.84Q119.17 14.91 119.89 14.91L119.89 14.91L119.89 15.52L114.24 15.52L114.24 14.91Q114.80 14.90 115.14 14.82Q115.49 14.74 115.68 14.54Q115.87 14.35 115.94 14Q116 13.65 116 13.09L116 13.09L116 5.63Q116 5.07 115.94 4.73Q115.89 4.38 115.72 4.18Q115.55 3.98 115.23 3.91Q114.91 3.84 114.40 3.81L114.40 3.81L114.40 3.20L119.42 3.20Q121.63 3.20 122.84 4.02Q124.05 4.83 124.05 6.29ZM117.68 4.22L117.68 8.88L118.82 8.88Q120.42 8.88 121.19 8.30Q121.97 7.71 121.97 6.37L121.97 6.37Q121.97 5.07 121.35 4.51Q120.74 3.95 119.42 3.95L119.42 3.95L117.95 3.95Q117.68 3.95 117.68 4.22L117.68 4.22ZM138.90 4.19L139.18 3.20L139.63 3.20L139.78 6.88L139.18 6.88Q138.83 5.47 137.82 4.67Q136.82 3.87 135.39 3.87L135.39 3.87Q134.42 3.87 133.65 4.26Q132.88 4.64 132.35 5.36Q131.82 6.08 131.54 7.12Q131.26 8.16 131.26 9.47L131.26 9.47Q131.26 12.05 132.34 13.43Q133.41 14.82 135.44 14.82L135.44 14.82Q138.53 14.82 139.41 11.54L139.41 11.54L140.06 11.54L140.06 15.52L139.50 15.52L139.14 14.26Q137.46 15.68 135.07 15.68L135.07 15.68Q133.71 15.68 132.62 15.25Q131.52 14.82 130.74 14.02Q129.97 13.23 129.54 12.10Q129.12 10.96 129.12 9.57L129.12 9.57Q129.12 8.11 129.57 6.91Q130.02 5.71 130.82 4.85Q131.63 3.98 132.76 3.51Q133.89 3.04 135.25 3.04L135.25 3.04Q136.21 3.04 137.06 3.31Q137.90 3.58 138.90 4.19L138.90 4.19ZM147.39 4.16L147.39 8.75Q148.26 8.75 148.84 8.65Q149.42 8.54 149.77 8.32Q150.11 8.10 150.26 7.74Q150.42 7.39 150.42 6.91L150.42 6.91L150.98 6.91L150.98 11.28L150.42 11.28Q150.42 10.80 150.28 10.45Q150.14 10.10 149.80 9.86Q149.46 9.63 148.87 9.51Q148.29 9.39 147.39 9.39L147.39 9.39L147.39 13.01Q147.39 13.54 147.52 13.88Q147.65 14.22 147.96 14.44Q148.27 14.66 148.78 14.74Q149.30 14.83 150.05 14.83L150.05 14.83Q150.90 14.83 151.49 14.71Q152.08 14.59 152.48 14.30Q152.88 14.02 153.12 13.54Q153.36 13.07 153.52 12.37L153.52 12.37L154.13 12.37L153.89 15.52L143.95 15.52L143.95 14.91Q144.51 14.90 144.86 14.82Q145.20 14.74 145.39 14.54Q145.58 14.35 145.65 14Q145.71 13.65 145.71 13.09L145.71 13.09L145.71 5.63Q145.71 5.07 145.66 4.73Q145.60 4.38 145.43 4.18Q145.26 3.98 144.94 3.91Q144.62 3.84 144.11 3.81L144.11 3.81L144.11 3.20L153.36 3.20L153.50 6.02L152.94 6.02Q152.85 5.38 152.63 4.97Q152.42 4.56 152.04 4.32Q151.66 4.08 151.09 3.98Q150.51 3.89 149.70 3.89L149.70 3.89L147.66 3.89Q147.39 3.89 147.39 4.16L147.39 4.16ZM165.09 15.34L164.85 11.76L165.44 11.76Q165.55 12.48 165.86 13.06Q166.18 13.63 166.65 14.03Q167.12 14.43 167.74 14.65Q168.35 14.86 169.07 14.86L169.07 14.86Q170.26 14.86 170.94 14.30Q171.63 13.74 171.63 12.78L171.63 12.78Q171.63 12.38 171.50 12.05Q171.36 11.71 171.04 11.40Q170.72 11.09 170.18 10.78Q169.65 10.48 168.83 10.13L168.83 10.13Q167.84 9.70 167.17 9.30Q166.50 8.90 166.10 8.46Q165.70 8.03 165.53 7.54Q165.36 7.06 165.36 6.43L165.36 6.43Q165.36 5.70 165.62 5.07Q165.89 4.45 166.37 3.99Q166.85 3.54 167.50 3.29Q168.16 3.04 168.94 3.04L168.94 3.04Q169.65 3.04 170.26 3.26Q170.86 3.49 171.49 3.98L171.49 3.98L171.90 3.26L172.27 3.26L172.45 6.45L171.86 6.45Q171.47 5.14 170.74 4.50Q170.02 3.86 168.99 3.86L168.99 3.86Q168.02 3.86 167.44 4.34Q166.86 4.82 166.86 5.63L166.86 5.63Q166.86 6.02 166.99 6.33Q167.12 6.64 167.41 6.92Q167.70 7.20 168.16 7.48Q168.62 7.76 169.31 8.06L169.31 8.06Q170.50 8.59 171.28 9.05Q172.06 9.50 172.53 9.96Q172.99 10.42 173.18 10.92Q173.38 11.42 173.38 12.05L173.38 12.05Q173.38 12.85 173.06 13.52Q172.74 14.19 172.16 14.67Q171.58 15.15 170.78 15.42Q169.98 15.68 169.02 15.68L169.02 15.68Q168.11 15.68 167.38 15.42Q166.66 15.17 165.90 14.56L165.90 14.56L165.46 15.34L165.09 15.34ZM184.05 3.04L184.05 3.04Q185.46 3.04 186.67 3.54Q187.89 4.03 188.78 4.90Q189.68 5.76 190.19 6.93Q190.70 8.10 190.70 9.46L190.70 9.46Q190.70 10.75 190.18 11.89Q189.66 13.02 188.77 13.86Q187.87 14.70 186.66 15.19Q185.44 15.68 184.05 15.68L184.05 15.68Q182.66 15.68 181.44 15.19Q180.22 14.70 179.33 13.86Q178.43 13.02 177.91 11.89Q177.39 10.75 177.39 9.46L177.39 9.46Q177.39 8.10 177.90 6.93Q178.42 5.76 179.31 4.90Q180.21 4.03 181.42 3.54Q182.64 3.04 184.05 3.04ZM184.05 14.80L184.05 14.80Q185.10 14.80 185.94 14.43Q186.78 14.06 187.38 13.38Q187.98 12.69 188.30 11.70Q188.62 10.72 188.62 9.50L188.62 9.50Q188.62 8.22 188.30 7.19Q187.98 6.16 187.39 5.43Q186.80 4.70 185.95 4.31Q185.10 3.92 184.05 3.92L184.05 3.92Q182.99 3.92 182.14 4.31Q181.30 4.70 180.70 5.43Q180.11 6.16 179.79 7.19Q179.47 8.22 179.47 9.50L179.47 9.50Q179.47 10.72 179.79 11.70Q180.11 12.69 180.70 13.38Q181.30 14.06 182.14 14.43Q182.99 14.80 184.05 14.80ZM197.81 9.71L197.81 12.98Q197.81 13.58 197.88 13.96Q197.95 14.34 198.19 14.54Q198.43 14.74 198.87 14.82Q199.31 14.90 200.03 14.91L200.03 14.91L200.03 15.52L194.37 15.52L194.37 14.91Q194.93 14.90 195.27 14.82Q195.62 14.74 195.81 14.54Q196.00 14.35 196.06 14Q196.13 13.65 196.13 13.09L196.13 13.09L196.13 5.63Q196.13 5.07 196.07 4.73Q196.02 4.38 195.85 4.18Q195.68 3.98 195.36 3.91Q195.04 3.84 194.53 3.81L194.53 3.81L194.53 3.20L203.78 3.20L203.95 6.26L203.39 6.26Q203.30 5.57 203.09 5.13Q202.88 4.69 202.50 4.43Q202.13 4.18 201.55 4.07Q200.98 3.97 200.11 3.97L200.11 3.97L198.08 3.97Q197.81 3.97 197.81 4.24L197.81 4.24L197.81 9.07Q198.58 9.07 199.13 8.98Q199.68 8.90 200.04 8.67Q200.40 8.45 200.59 8.06Q200.78 7.68 200.83 7.07L200.83 7.07L201.39 7.07L201.39 11.76L200.83 11.76Q200.75 11.15 200.58 10.75Q200.40 10.35 200.06 10.13Q199.71 9.90 199.17 9.81Q198.62 9.71 197.81 9.71L197.81 9.71ZM219.02 3.20L219.18 6.26L218.53 6.26Q218.48 5.57 218.30 5.10Q218.13 4.64 217.80 4.38Q217.47 4.11 216.98 4Q216.48 3.89 215.79 3.89L215.79 3.89Q215.20 3.89 214.84 3.91Q214.48 3.94 214.29 4Q214.10 4.06 214.04 4.15Q213.98 4.24 213.98 4.38L213.98 4.38L213.98 12.94Q213.98 13.46 214.06 13.82Q214.13 14.19 214.34 14.42Q214.56 14.66 214.97 14.78Q215.38 14.90 216.05 14.91L216.05 14.91L216.05 15.52L210.00 15.52L210.00 14.91Q210.67 14.90 211.09 14.78Q211.50 14.66 211.72 14.42Q211.94 14.19 212.01 13.82Q212.08 13.46 212.08 12.94L212.08 12.94L212.08 4.38Q212.08 4.24 212.02 4.15Q211.97 4.06 211.80 4Q211.63 3.94 211.33 3.91Q211.02 3.89 210.51 3.89L210.51 3.89Q209.89 3.89 209.35 3.94Q208.82 3.98 208.42 4.22Q208.03 4.45 207.79 4.93Q207.55 5.41 207.54 6.26L207.54 6.26L206.94 6.26L206.94 3.20L219.02 3.20ZM232.90 5.92L235.04 13.10L237.54 6.16Q237.76 5.54 237.86 5.17Q237.95 4.80 237.95 4.53L237.95 4.53Q237.95 4.11 237.69 3.96Q237.42 3.81 236.75 3.81L236.75 3.81L236.75 3.20L240.64 3.20L240.64 3.81Q239.90 3.81 239.53 4.11Q239.15 4.42 238.90 5.10L238.90 5.10L234.88 15.68L234.32 15.68L231.25 6.58L227.84 15.68L227.28 15.68L223.95 6.50Q223.66 5.73 223.43 5.21Q223.20 4.69 222.94 4.38Q222.67 4.08 222.34 3.95Q222.00 3.82 221.52 3.82L221.52 3.82L221.52 3.20L226.74 3.20L226.74 3.82Q225.92 3.82 225.59 3.97Q225.26 4.11 225.26 4.53L225.26 4.53Q225.26 4.74 225.33 5.01Q225.39 5.28 225.52 5.65L225.52 5.65L227.95 13.06L229.92 7.52Q230.14 6.90 230.36 6.36Q230.58 5.82 230.70 5.39L230.70 5.39Q230.48 4.93 230.30 4.62Q230.11 4.32 229.93 4.14Q229.74 3.97 229.54 3.90Q229.34 3.82 229.12 3.82L229.12 3.82L229.12 3.20L234.02 3.20L234.02 3.82Q233.55 3.82 233.26 3.86Q232.98 3.89 232.82 3.96Q232.67 4.03 232.62 4.16Q232.56 4.29 232.56 4.46L232.56 4.46Q232.56 4.70 232.65 5.05Q232.74 5.39 232.90 5.92L232.90 5.92ZM250.06 12.78L249.41 11.06L245.14 11.06Q244.86 11.71 244.67 12.22Q244.48 12.72 244.36 13.09Q244.24 13.46 244.19 13.71Q244.14 13.97 244.14 14.13L244.14 14.13Q244.14 14.58 244.43 14.74Q244.72 14.91 245.39 14.91L245.39 14.91L245.39 15.52L241.50 15.52L241.50 14.91Q241.87 14.86 242.14 14.78Q242.40 14.70 242.60 14.56Q242.80 14.42 242.95 14.18Q243.10 13.95 243.25 13.62L243.25 13.62L247.41 3.20L248.10 3.20L251.73 12.22Q252.10 13.12 252.37 13.66Q252.64 14.19 252.90 14.46Q253.15 14.74 253.45 14.82Q253.74 14.90 254.16 14.90L254.16 14.90L254.16 15.52L248.94 15.52L248.94 14.90Q249.79 14.90 250.11 14.74Q250.43 14.58 250.43 14.21L250.43 14.21Q250.43 14.05 250.42 13.91Q250.40 13.78 250.36 13.62Q250.32 13.46 250.25 13.26Q250.18 13.06 250.06 12.78L250.06 12.78ZM247.33 5.54L245.46 10.26L249.10 10.26L247.33 5.54ZM266.72 6.29L266.72 6.29Q266.72 7.57 265.95 8.42Q265.18 9.26 263.50 9.55L263.50 9.55L267.04 13.81Q267.47 14.34 267.99 14.57Q268.51 14.80 269.23 14.91L269.23 14.91L269.23 15.52L266.14 15.52L262.22 10.50Q262.02 10.22 261.83 10.06Q261.65 9.90 261.45 9.82Q261.25 9.73 260.98 9.70Q260.72 9.68 260.35 9.68L260.35 9.68L260.35 13.01Q260.35 13.60 260.42 13.98Q260.50 14.35 260.73 14.56Q260.96 14.77 261.40 14.84Q261.84 14.91 262.56 14.91L262.56 14.91L262.56 15.52L256.91 15.52L256.91 14.91Q257.47 14.90 257.82 14.82Q258.16 14.74 258.35 14.54Q258.54 14.35 258.61 14Q258.67 13.65 258.67 13.09L258.67 13.09L258.67 5.63Q258.67 5.07 258.62 4.73Q258.56 4.38 258.39 4.18Q258.22 3.98 257.90 3.91Q257.58 3.84 257.07 3.81L257.07 3.81L257.07 3.20L262.10 3.20Q264.30 3.20 265.51 4.02Q266.72 4.83 266.72 6.29ZM260.35 4.22L260.35 8.88L261.49 8.88Q263.09 8.88 263.86 8.30Q264.64 7.71 264.64 6.37L264.64 6.37Q264.64 5.07 264.02 4.51Q263.41 3.95 262.10 3.95L262.10 3.95L260.62 3.95Q260.35 3.95 260.35 4.22L260.35 4.22ZM275.20 4.16L275.20 8.75Q276.06 8.75 276.65 8.65Q277.23 8.54 277.58 8.32Q277.92 8.10 278.07 7.74Q278.22 7.39 278.22 6.91L278.22 6.91L278.78 6.91L278.78 11.28L278.22 11.28Q278.22 10.80 278.09 10.45Q277.95 10.10 277.61 9.86Q277.26 9.63 276.68 9.51Q276.10 9.39 275.20 9.39L275.20 9.39L275.20 13.01Q275.20 13.54 275.33 13.88Q275.46 14.22 275.77 14.44Q276.08 14.66 276.59 14.74Q277.10 14.83 277.86 14.83L277.86 14.83Q278.70 14.83 279.30 14.71Q279.89 14.59 280.29 14.30Q280.69 14.02 280.93 13.54Q281.17 13.07 281.33 12.37L281.33 12.37L281.94 12.37L281.70 15.52L271.76 15.52L271.76 14.91Q272.32 14.90 272.66 14.82Q273.01 14.74 273.20 14.54Q273.39 14.35 273.46 14Q273.52 13.65 273.52 13.09L273.52 13.09L273.52 5.63Q273.52 5.07 273.46 4.73Q273.41 4.38 273.24 4.18Q273.07 3.98 272.75 3.91Q272.43 3.84 271.92 3.81L271.92 3.81L271.92 3.20L281.17 3.20L281.31 6.02L280.75 6.02Q280.66 5.38 280.44 4.97Q280.22 4.56 279.85 4.32Q279.47 4.08 278.90 3.98Q278.32 3.89 277.50 3.89L277.50 3.89L275.47 3.89Q275.20 3.89 275.20 4.16L275.20 4.16ZM295.89 4.16L295.89 8.75Q296.75 8.75 297.34 8.65Q297.92 8.54 298.26 8.32Q298.61 8.10 298.76 7.74Q298.91 7.39 298.91 6.91L298.91 6.91L299.47 6.91L299.47 11.28L298.91 11.28Q298.91 10.80 298.78 10.45Q298.64 10.10 298.30 9.86Q297.95 9.63 297.37 9.51Q296.78 9.39 295.89 9.39L295.89 9.39L295.89 13.01Q295.89 13.54 296.02 13.88Q296.14 14.22 296.46 14.44Q296.77 14.66 297.28 14.74Q297.79 14.83 298.54 14.83L298.54 14.83Q299.39 14.83 299.98 14.71Q300.58 14.59 300.98 14.30Q301.38 14.02 301.62 13.54Q301.86 13.07 302.02 12.37L302.02 12.37L302.62 12.37L302.38 15.52L292.45 15.52L292.45 14.91Q293.01 14.90 293.35 14.82Q293.70 14.74 293.89 14.54Q294.08 14.35 294.14 14Q294.21 13.65 294.21 13.09L294.21 13.09L294.21 5.63Q294.21 5.07 294.15 4.73Q294.10 4.38 293.93 4.18Q293.76 3.98 293.44 3.91Q293.12 3.84 292.61 3.81L292.61 3.81L292.61 3.20L301.86 3.20L302.00 6.02L301.44 6.02Q301.34 5.38 301.13 4.97Q300.91 4.56 300.54 4.32Q300.16 4.08 299.58 3.98Q299.01 3.89 298.19 3.89L298.19 3.89L296.16 3.89Q295.89 3.89 295.89 4.16L295.89 4.16ZM317.65 15.68L316.69 15.68L309.09 5.66L309.02 5.66L309.02 12.50Q309.02 13.30 309.08 13.76Q309.14 14.22 309.30 14.48Q309.47 14.74 309.78 14.82Q310.10 14.90 310.61 14.91L310.61 14.91L310.61 15.52L306.30 15.52L306.30 14.91Q306.86 14.90 307.21 14.81Q307.55 14.72 307.74 14.48Q307.94 14.24 308.00 13.80Q308.06 13.36 308.06 12.61L308.06 12.61L308.06 6.11Q308.06 5.44 308.01 5Q307.95 4.56 307.78 4.30Q307.62 4.05 307.30 3.94Q306.98 3.84 306.46 3.81L306.46 3.81L306.46 3.20L309.63 3.20L316.62 12.53L316.69 12.53L316.69 6.22Q316.69 5.44 316.63 4.97Q316.58 4.50 316.41 4.24Q316.24 3.98 315.93 3.90Q315.62 3.82 315.10 3.81L315.10 3.81L315.10 3.20L319.41 3.20L319.41 3.81Q318.85 3.82 318.50 3.91Q318.16 4 317.97 4.24Q317.78 4.48 317.71 4.93Q317.65 5.38 317.65 6.11L317.65 6.11L317.65 15.68ZM328.93 15.68L328.93 15.68Q327.57 15.68 326.48 15.25Q325.39 14.82 324.62 14.02Q323.86 13.23 323.45 12.10Q323.04 10.96 323.04 9.57L323.04 9.57Q323.04 8.11 323.49 6.91Q323.94 5.71 324.74 4.85Q325.55 3.98 326.68 3.51Q327.81 3.04 329.17 3.04L329.17 3.04Q330.13 3.04 330.98 3.31Q331.82 3.58 332.82 4.19L332.82 4.19L333.15 3.20L333.71 3.20L333.50 6.88L332.74 6.88Q332.74 6.10 332.44 5.53Q332.14 4.96 331.66 4.59Q331.18 4.22 330.57 4.05Q329.95 3.87 329.31 3.87L329.31 3.87Q328.34 3.87 327.57 4.26Q326.80 4.64 326.27 5.36Q325.74 6.08 325.46 7.12Q325.18 8.16 325.18 9.47L325.18 9.47Q325.18 12.05 326.26 13.43Q327.33 14.82 329.36 14.82L329.36 14.82Q330.13 14.82 330.74 14.63Q331.34 14.45 331.77 14.14Q332.19 13.82 332.41 13.42Q332.62 13.01 332.62 12.56L332.62 12.56Q332.62 11.63 332.25 11.30Q331.87 10.98 331.02 10.98L331.02 10.98L331.02 10.37L335.57 10.37L335.57 10.98Q335.18 10.98 334.93 11.04Q334.67 11.10 334.52 11.27Q334.37 11.44 334.31 11.71Q334.26 11.98 334.26 12.40L334.26 12.40L334.26 14.19Q333.95 14.19 333.70 14.22Q333.46 14.24 333.18 14.33Q332.91 14.42 332.58 14.57Q332.26 14.72 331.81 14.98L331.81 14.98Q331.25 15.30 330.52 15.49Q329.79 15.68 328.93 15.68ZM342.40 6.22L342.40 12.50Q342.40 13.30 342.46 13.76Q342.53 14.22 342.71 14.48Q342.90 14.74 343.24 14.82Q343.58 14.90 344.14 14.91L344.14 14.91L344.14 15.52L338.96 15.52L338.96 14.91Q339.52 14.90 339.86 14.81Q340.21 14.72 340.40 14.48Q340.59 14.24 340.66 13.80Q340.72 13.36 340.72 12.61L340.72 12.61L340.72 6.11Q340.72 5.44 340.66 5Q340.61 4.56 340.44 4.30Q340.27 4.05 339.95 3.94Q339.63 3.84 339.12 3.81L339.12 3.81L339.12 3.20L343.98 3.20L343.98 3.81Q343.47 3.82 343.16 3.94Q342.85 4.05 342.68 4.31Q342.51 4.58 342.46 5.04Q342.40 5.50 342.40 6.22L342.40 6.22ZM359.18 15.68L358.22 15.68L350.62 5.66L350.56 5.66L350.56 12.50Q350.56 13.30 350.62 13.76Q350.67 14.22 350.84 14.48Q351.01 14.74 351.32 14.82Q351.63 14.90 352.14 14.91L352.14 14.91L352.14 15.52L347.84 15.52L347.84 14.91Q348.40 14.90 348.74 14.81Q349.09 14.72 349.28 14.48Q349.47 14.24 349.54 13.80Q349.60 13.36 349.60 12.61L349.60 12.61L349.60 6.11Q349.60 5.44 349.54 5Q349.49 4.56 349.32 4.30Q349.15 4.05 348.83 3.94Q348.51 3.84 348.00 3.81L348.00 3.81L348.00 3.20L351.17 3.20L358.16 12.53L358.22 12.53L358.22 6.22Q358.22 5.44 358.17 4.97Q358.11 4.50 357.94 4.24Q357.78 3.98 357.46 3.90Q357.15 3.82 356.64 3.81L356.64 3.81L356.64 3.20L360.94 3.20L360.94 3.81Q360.38 3.82 360.04 3.91Q359.70 4 359.50 4.24Q359.31 4.48 359.25 4.93Q359.18 5.38 359.18 6.11L359.18 6.11L359.18 15.68ZM367.95 4.16L367.95 8.75Q368.82 8.75 369.40 8.65Q369.98 8.54 370.33 8.32Q370.67 8.10 370.82 7.74Q370.98 7.39 370.98 6.91L370.98 6.91L371.54 6.91L371.54 11.28L370.98 11.28Q370.98 10.80 370.84 10.45Q370.70 10.10 370.36 9.86Q370.02 9.63 369.43 9.51Q368.85 9.39 367.95 9.39L367.95 9.39L367.95 13.01Q367.95 13.54 368.08 13.88Q368.21 14.22 368.52 14.44Q368.83 14.66 369.34 14.74Q369.86 14.83 370.61 14.83L370.61 14.83Q371.46 14.83 372.05 14.71Q372.64 14.59 373.04 14.30Q373.44 14.02 373.68 13.54Q373.92 13.07 374.08 12.37L374.08 12.37L374.69 12.37L374.45 15.52L364.51 15.52L364.51 14.91Q365.07 14.90 365.42 14.82Q365.76 14.74 365.95 14.54Q366.14 14.35 366.21 14Q366.27 13.65 366.27 13.09L366.27 13.09L366.27 5.63Q366.27 5.07 366.22 4.73Q366.16 4.38 365.99 4.18Q365.82 3.98 365.50 3.91Q365.18 3.84 364.67 3.81L364.67 3.81L364.67 3.20L373.92 3.20L374.06 6.02L373.50 6.02Q373.41 5.38 373.19 4.97Q372.98 4.56 372.60 4.32Q372.22 4.08 371.65 3.98Q371.07 3.89 370.26 3.89L370.26 3.89L368.22 3.89Q367.95 3.89 367.95 4.16L367.95 4.16ZM381.81 4.16L381.81 8.75Q382.67 8.75 383.26 8.65Q383.84 8.54 384.18 8.32Q384.53 8.10 384.68 7.74Q384.83 7.39 384.83 6.91L384.83 6.91L385.39 6.91L385.39 11.28L384.83 11.28Q384.83 10.80 384.70 10.45Q384.56 10.10 384.22 9.86Q383.87 9.63 383.29 9.51Q382.70 9.39 381.81 9.39L381.81 9.39L381.81 13.01Q381.81 13.54 381.94 13.88Q382.06 14.22 382.38 14.44Q382.69 14.66 383.20 14.74Q383.71 14.83 384.46 14.83L384.46 14.83Q385.31 14.83 385.90 14.71Q386.50 14.59 386.90 14.30Q387.30 14.02 387.54 13.54Q387.78 13.07 387.94 12.37L387.94 12.37L388.54 12.37L388.30 15.52L378.37 15.52L378.37 14.91Q378.93 14.90 379.27 14.82Q379.62 14.74 379.81 14.54Q380.00 14.35 380.06 14Q380.13 13.65 380.13 13.09L380.13 13.09L380.13 5.63Q380.13 5.07 380.07 4.73Q380.02 4.38 379.85 4.18Q379.68 3.98 379.36 3.91Q379.04 3.84 378.53 3.81L378.53 3.81L378.53 3.20L387.78 3.20L387.92 6.02L387.36 6.02Q387.26 5.38 387.05 4.97Q386.83 4.56 386.46 4.32Q386.08 4.08 385.50 3.98Q384.93 3.89 384.11 3.89L384.11 3.89L382.08 3.89Q381.81 3.89 381.81 4.16L381.81 4.16ZM402.03 6.29L402.03 6.29Q402.03 7.57 401.26 8.42Q400.50 9.26 398.82 9.55L398.82 9.55L402.35 13.81Q402.78 14.34 403.30 14.57Q403.82 14.80 404.54 14.91L404.54 14.91L404.54 15.52L401.46 15.52L397.54 10.50Q397.33 10.22 397.14 10.06Q396.96 9.90 396.76 9.82Q396.56 9.73 396.30 9.70Q396.03 9.68 395.66 9.68L395.66 9.68L395.66 13.01Q395.66 13.60 395.74 13.98Q395.81 14.35 396.04 14.56Q396.27 14.77 396.71 14.84Q397.15 14.91 397.87 14.91L397.87 14.91L397.87 15.52L392.22 15.52L392.22 14.91Q392.78 14.90 393.13 14.82Q393.47 14.74 393.66 14.54Q393.86 14.35 393.92 14Q393.98 13.65 393.98 13.09L393.98 13.09L393.98 5.63Q393.98 5.07 393.93 4.73Q393.87 4.38 393.70 4.18Q393.54 3.98 393.22 3.91Q392.90 3.84 392.38 3.81L392.38 3.81L392.38 3.20L397.41 3.20Q399.62 3.20 400.82 4.02Q402.03 4.83 402.03 6.29ZM395.66 4.22L395.66 8.88L396.80 8.88Q398.40 8.88 399.18 8.30Q399.95 7.71 399.95 6.37L399.95 6.37Q399.95 5.07 399.34 4.51Q398.72 3.95 397.41 3.95L397.41 3.95L395.94 3.95Q395.66 3.95 395.66 4.22L395.66 4.22ZM410.51 6.22L410.51 12.50Q410.51 13.30 410.58 13.76Q410.64 14.22 410.82 14.48Q411.01 14.74 411.35 14.82Q411.70 14.90 412.26 14.91L412.26 14.91L412.26 15.52L407.07 15.52L407.07 14.91Q407.63 14.90 407.98 14.81Q408.32 14.72 408.51 14.48Q408.70 14.24 408.77 13.80Q408.83 13.36 408.83 12.61L408.83 12.61L408.83 6.11Q408.83 5.44 408.78 5Q408.72 4.56 408.55 4.30Q408.38 4.05 408.06 3.94Q407.74 3.84 407.23 3.81L407.23 3.81L407.23 3.20L412.10 3.20L412.10 3.81Q411.58 3.82 411.27 3.94Q410.96 4.05 410.79 4.31Q410.62 4.58 410.57 5.04Q410.51 5.50 410.51 6.22L410.51 6.22ZM427.30 15.68L426.34 15.68L418.74 5.66L418.67 5.66L418.67 12.50Q418.67 13.30 418.73 13.76Q418.78 14.22 418.95 14.48Q419.12 14.74 419.43 14.82Q419.74 14.90 420.26 14.91L420.26 14.91L420.26 15.52L415.95 15.52L415.95 14.91Q416.51 14.90 416.86 14.81Q417.20 14.72 417.39 14.48Q417.58 14.24 417.65 13.80Q417.71 13.36 417.71 12.61L417.71 12.61L417.71 6.11Q417.71 5.44 417.66 5Q417.60 4.56 417.43 4.30Q417.26 4.05 416.94 3.94Q416.62 3.84 416.11 3.81L416.11 3.81L416.11 3.20L419.28 3.20L426.27 12.53L426.34 12.53L426.34 6.22Q426.34 5.44 426.28 4.97Q426.22 4.50 426.06 4.24Q425.89 3.98 425.58 3.90Q425.26 3.82 424.75 3.81L424.75 3.81L424.75 3.20L429.06 3.20L429.06 3.81Q428.50 3.82 428.15 3.91Q427.81 4 427.62 4.24Q427.42 4.48 427.36 4.93Q427.30 5.38 427.30 6.11L427.30 6.11L427.30 15.68ZM438.58 15.68L438.58 15.68Q437.22 15.68 436.13 15.25Q435.04 14.82 434.27 14.02Q433.50 13.23 433.10 12.10Q432.69 10.96 432.69 9.57L432.69 9.57Q432.69 8.11 433.14 6.91Q433.58 5.71 434.39 4.85Q435.20 3.98 436.33 3.51Q437.46 3.04 438.82 3.04L438.82 3.04Q439.78 3.04 440.62 3.31Q441.47 3.58 442.46 4.19L442.46 4.19L442.80 3.20L443.36 3.20L443.15 6.88L442.38 6.88Q442.38 6.10 442.09 5.53Q441.79 4.96 441.31 4.59Q440.83 4.22 440.22 4.05Q439.60 3.87 438.96 3.87L438.96 3.87Q437.98 3.87 437.22 4.26Q436.45 4.64 435.92 5.36Q435.39 6.08 435.11 7.12Q434.83 8.16 434.83 9.47L434.83 9.47Q434.83 12.05 435.90 13.43Q436.98 14.82 439.01 14.82L439.01 14.82Q439.78 14.82 440.38 14.63Q440.99 14.45 441.42 14.14Q441.84 13.82 442.06 13.42Q442.27 13.01 442.27 12.56L442.27 12.56Q442.27 11.63 441.90 11.30Q441.52 10.98 440.67 10.98L440.67 10.98L440.67 10.37L445.22 10.37L445.22 10.98Q444.83 10.98 444.58 11.04Q444.32 11.10 444.17 11.27Q444.02 11.44 443.96 11.71Q443.90 11.98 443.90 12.40L443.90 12.40L443.90 14.19Q443.60 14.19 443.35 14.22Q443.10 14.24 442.83 14.33Q442.56 14.42 442.23 14.57Q441.90 14.72 441.46 14.98L441.46 14.98Q440.90 15.30 440.17 15.49Q439.44 15.68 438.58 15.68ZM461.20 15.68L461.20 15.68Q459.84 15.68 458.75 15.25Q457.66 14.82 456.90 14.02Q456.13 13.23 455.72 12.10Q455.31 10.96 455.31 9.57L455.31 9.57Q455.31 8.11 455.76 6.91Q456.21 5.71 457.02 4.85Q457.82 3.98 458.95 3.51Q460.08 3.04 461.44 3.04L461.44 3.04Q462.40 3.04 463.25 3.31Q464.10 3.58 465.09 4.19L465.09 4.19L465.42 3.20L465.98 3.20L465.78 6.88L465.01 6.88Q465.01 6.10 464.71 5.53Q464.42 4.96 463.94 4.59Q463.46 4.22 462.84 4.05Q462.22 3.87 461.58 3.87L461.58 3.87Q460.61 3.87 459.84 4.26Q459.07 4.64 458.54 5.36Q458.02 6.08 457.74 7.12Q457.46 8.16 457.46 9.47L457.46 9.47Q457.46 12.05 458.53 13.43Q459.60 14.82 461.63 14.82L461.63 14.82Q462.40 14.82 463.01 14.63Q463.62 14.45 464.04 14.14Q464.46 13.82 464.68 13.42Q464.90 13.01 464.90 12.56L464.90 12.56Q464.90 11.63 464.52 11.30Q464.14 10.98 463.30 10.98L463.30 10.98L463.30 10.37L467.84 10.37L467.84 10.98Q467.46 10.98 467.20 11.04Q466.94 11.10 466.79 11.27Q466.64 11.44 466.58 11.71Q466.53 11.98 466.53 12.40L466.53 12.40L466.53 14.19Q466.22 14.19 465.98 14.22Q465.73 14.24 465.46 14.33Q465.18 14.42 464.86 14.57Q464.53 14.72 464.08 14.98L464.08 14.98Q463.52 15.30 462.79 15.49Q462.06 15.68 461.20 15.68ZM482.06 7.33L482.06 10.56Q482.06 11.82 481.82 12.78Q481.57 13.74 481.02 14.38Q480.46 15.02 479.58 15.35Q478.70 15.68 477.46 15.68L477.46 15.68Q476.27 15.68 475.39 15.45Q474.51 15.22 473.92 14.68Q473.33 14.14 473.04 13.28Q472.75 12.42 472.75 11.15L472.75 11.15L472.75 6.93Q472.75 5.74 472.70 5.10Q472.64 4.46 472.37 4.16L472.37 4.16Q472.18 3.95 471.85 3.88Q471.52 3.81 470.98 3.81L470.98 3.81L470.98 3.20L476.43 3.20L476.43 3.81Q475.89 3.81 475.55 3.87Q475.22 3.94 475.02 4.19L475.02 4.19Q474.80 4.48 474.74 5.11Q474.67 5.74 474.67 6.93L474.67 6.93L474.67 11.28Q474.67 12.10 474.84 12.73Q475.01 13.36 475.39 13.80Q475.78 14.24 476.39 14.46Q477.01 14.69 477.90 14.69L477.90 14.69Q479.50 14.69 480.30 13.80Q481.10 12.91 481.10 11.18L481.10 11.18L481.10 7.33Q481.10 5.90 480.99 5.17Q480.88 4.43 480.58 4.13L480.58 4.13Q480.35 3.92 480.02 3.86Q479.68 3.81 479.18 3.81L479.18 3.81L479.18 3.20L483.82 3.20L483.82 3.81Q483.31 3.81 482.98 3.89Q482.66 3.97 482.46 4.24L482.46 4.24Q482.22 4.58 482.14 5.29Q482.06 6 482.06 7.33L482.06 7.33ZM490.69 6.22L490.69 12.50Q490.69 13.30 490.75 13.76Q490.82 14.22 491.00 14.48Q491.18 14.74 491.53 14.82Q491.87 14.90 492.43 14.91L492.43 14.91L492.43 15.52L487.25 15.52L487.25 14.91Q487.81 14.90 488.15 14.81Q488.50 14.72 488.69 14.48Q488.88 14.24 488.94 13.80Q489.01 13.36 489.01 12.61L489.01 12.61L489.01 6.11Q489.01 5.44 488.95 5Q488.90 4.56 488.73 4.30Q488.56 4.05 488.24 3.94Q487.92 3.84 487.41 3.81L487.41 3.81L487.41 3.20L492.27 3.20L492.27 3.81Q491.76 3.82 491.45 3.94Q491.14 4.05 490.97 4.31Q490.80 4.58 490.74 5.04Q490.69 5.50 490.69 6.22L490.69 6.22ZM506.70 12.37L506.46 15.52L496.13 15.52L496.13 14.91Q496.69 14.90 497.03 14.82Q497.38 14.74 497.57 14.54Q497.76 14.35 497.82 14Q497.89 13.65 497.89 13.09L497.89 13.09L497.89 5.63Q497.89 5.07 497.83 4.73Q497.78 4.38 497.61 4.18Q497.44 3.98 497.12 3.91Q496.80 3.84 496.29 3.81L496.29 3.81L496.29 3.20L501.15 3.20L501.15 3.81Q500.64 3.82 500.33 3.90Q500.02 3.98 499.85 4.19Q499.68 4.40 499.62 4.77Q499.57 5.14 499.57 5.74L499.57 5.74L499.57 12.64Q499.57 13.31 499.70 13.74Q499.84 14.16 500.17 14.39Q500.50 14.62 501.04 14.71Q501.58 14.80 502.42 14.80L502.42 14.80Q503.33 14.80 503.95 14.70Q504.58 14.59 505.00 14.33Q505.42 14.06 505.67 13.59Q505.92 13.12 506.10 12.37L506.10 12.37L506.70 12.37ZM516.14 15.52L509.89 15.52L509.89 14.91Q510.50 14.90 510.87 14.82Q511.25 14.75 511.46 14.55Q511.66 14.35 511.74 14.01Q511.81 13.66 511.81 13.09L511.81 13.09L511.81 5.63Q511.81 5.07 511.75 4.73Q511.70 4.38 511.53 4.18Q511.36 3.98 511.04 3.91Q510.72 3.84 510.21 3.81L510.21 3.81L510.21 3.20L515.82 3.20Q517.26 3.20 518.49 3.68Q519.71 4.16 520.60 5.01Q521.49 5.86 521.98 7.02Q522.48 8.19 522.48 9.57L522.48 9.57Q522.48 10.88 522.02 11.98Q521.55 13.07 520.71 13.86Q519.87 14.64 518.70 15.08Q517.54 15.52 516.14 15.52L516.14 15.52ZM515.79 3.98L513.76 3.98Q513.49 3.98 513.49 4.26L513.49 4.26L513.49 12.91Q513.49 14.74 515.87 14.74L515.87 14.74Q518.06 14.74 519.23 13.43Q520.40 12.13 520.40 9.60L520.40 9.60Q520.40 8.27 520.08 7.23Q519.76 6.19 519.16 5.47Q518.56 4.75 517.71 4.37Q516.86 3.98 515.79 3.98L515.79 3.98Z" transform="translate(0, 0)"></path></g></svg> <svg y="356.20995330810547" viewBox="0.9500000476837158 13.100000381469727 454.03997802734375 28.999998092651367" x="60.479988403320306" height="28.999998092651367" width="454.03997802734375" style="overflow: visible;"><g fill="#ffffff" fill-opacity="1" style=""><path d="M13.69 41.59L0.95 41.59L0.95 35.53L3.76 35.53L3.76 19.67L0.95 19.67L0.95 13.61L13.71 13.61Q21.50 13.61 25.56 17.18Q29.62 20.76 29.62 27.63L29.62 27.63Q29.62 34.49 25.58 38.04Q21.53 41.59 13.69 41.59L13.69 41.59ZM12.90 19.49L12.90 35.70L13.87 35.70Q16.96 35.70 18.30 33.83Q19.63 31.96 19.63 27.58L19.63 27.58Q19.63 23.22 18.30 21.36Q16.96 19.49 13.87 19.49L13.87 19.49L12.90 19.49ZM49.97 41.59L34.85 41.59L34.85 35.53L37.84 35.53L37.84 19.67L34.85 19.67L34.85 13.61L49.97 13.61L49.97 19.67L46.98 19.67L46.98 35.53L49.97 35.53L49.97 41.59ZM71.79 42.10L71.79 42.10Q66.68 42.10 62.96 40.25Q59.24 38.41 57.22 35.02Q55.20 31.62 55.20 26.98L55.20 26.98Q55.20 22.82 56.83 19.70Q58.45 16.58 61.38 14.84Q64.31 13.10 68.21 13.10L68.21 13.10Q71.14 13.10 73.17 13.92Q75.21 14.75 76.49 16.37L76.49 16.37L77.38 13.61L82.22 13.61L82.22 23.78L75.71 23.78Q75.38 21.43 74.27 20.36Q73.17 19.30 71.11 19.30L71.11 19.30Q69.47 19.30 68.12 20.12Q66.77 20.94 65.96 22.63Q65.15 24.33 65.15 26.96L65.15 26.96Q65.15 30.88 67.02 32.96Q68.89 35.03 72.36 35.03L72.36 35.03Q73.80 35.03 74.91 34.66L74.91 34.66L74.91 31.82L71.57 31.82L71.57 26.54L82.82 26.54L82.82 39.62Q81.48 40.34 79.65 40.90Q77.82 41.47 75.80 41.78Q73.78 42.10 71.79 42.10ZM103.82 41.59L88.70 41.59L88.70 35.53L91.69 35.53L91.69 19.67L88.70 19.67L88.70 13.61L103.82 13.61L103.82 19.67L100.83 19.67L100.83 35.53L103.82 35.53L103.82 41.59ZM132.46 41.59L113.13 41.59L113.13 35.53L118.22 35.53L118.22 19.32L115.08 19.32L114.38 25.24L108.57 25.24L108.57 13.61L137.02 13.61L137.02 25.24L131.21 25.24L130.51 19.32L127.37 19.32L127.37 35.53L132.46 35.53L132.46 41.59ZM150.81 41.59L139.22 41.59L139.22 35.53L141.77 35.53L147.03 19.67L143.25 19.67L143.25 13.61L160.62 13.61L167.19 35.53L169.74 35.53L169.74 41.59L153.97 41.59L153.97 35.53L156.87 35.53L156.06 32.45L148.82 32.45L147.91 35.53L150.81 35.53L150.81 41.59ZM152.67 19.51L150.12 28.05L154.90 28.05L152.67 19.51ZM198.42 41.59L174.23 41.59L174.23 35.53L177.05 35.53L177.05 19.67L174.23 19.67L174.23 13.61L190.05 13.61L190.05 19.67L186.19 19.67L186.19 35.61L191.92 35.61L192.62 29.06L198.42 29.06L198.42 41.59ZM226.31 41.59L213.56 41.59L213.56 35.53L216.38 35.53L216.38 19.67L213.56 19.67L213.56 13.61L226.32 13.61Q234.11 13.61 238.17 17.18Q242.23 20.76 242.23 27.63L242.23 27.63Q242.23 34.49 238.19 38.04Q234.15 41.59 226.31 41.59L226.31 41.59ZM225.52 19.49L225.52 35.70L226.48 35.70Q229.58 35.70 230.91 33.83Q232.25 31.96 232.25 27.58L232.25 27.58Q232.25 23.22 230.91 21.36Q229.58 19.49 226.48 19.49L226.48 19.49L225.52 19.49ZM272.53 41.59L247.64 41.59L247.64 35.53L250.45 35.53L250.45 19.67L247.64 19.67L247.64 13.61L272.53 13.61L272.53 24.73L266.73 24.73L266.12 19.58L259.38 19.58L259.38 24.33L264.13 24.33L264.13 30.30L259.38 30.30L259.38 35.61L266.12 35.61L266.73 29.69L272.53 29.69L272.53 41.59ZM295.64 41.59L278.80 41.59L278.80 35.53L281.61 35.53L281.61 19.67L278.80 19.67L278.80 13.61L303.34 13.61L303.34 25.24L297.54 25.24L296.92 19.58L290.54 19.58L290.54 24.33L295.11 24.33L295.11 30.30L290.54 30.30L290.54 35.53L295.64 35.53L295.64 41.59ZM323.02 41.59L307.90 41.59L307.90 35.53L310.89 35.53L310.89 19.67L307.90 19.67L307.90 13.61L323.02 13.61L323.02 19.67L320.03 19.67L320.03 35.53L323.02 35.53L323.02 41.59ZM338.80 41.59L327.22 41.59L327.22 35.53L329.77 35.53L335.02 19.67L331.24 19.67L331.24 13.61L348.61 13.61L355.18 35.53L357.73 35.53L357.73 41.59L341.96 41.59L341.96 35.53L344.87 35.53L344.06 32.45L336.81 32.45L335.90 35.53L338.80 35.53L338.80 41.59ZM340.66 19.51L338.12 28.05L342.90 28.05L340.66 19.51ZM390.18 41.59L380.38 41.61L370.77 25.59L370.77 35.53L373.58 35.53L373.58 41.59L362.23 41.59L362.23 35.53L365.04 35.53L365.04 19.67L362.23 19.67L362.23 13.61L374.79 13.61L384.45 29.62L384.45 19.67L381.63 19.67L381.63 13.61L392.99 13.61L392.99 19.67L390.18 19.67L390.18 41.59ZM413.76 42.10L413.76 42.10Q409.00 42.10 405.51 40.27Q402.02 38.44 400.12 35.05Q398.22 31.66 398.22 26.98L398.22 26.98Q398.22 23.63 399.21 21.04Q400.21 18.46 401.96 16.68Q403.71 14.91 405.97 14.00Q408.24 13.10 410.79 13.10L410.79 13.10Q413.46 13.10 415.41 13.94Q417.36 14.78 418.63 16.40L418.63 16.40L419.53 13.61L424.36 13.61L424.36 25.24L417.94 25.24Q417.80 21.87 416.62 20.58Q415.43 19.30 413.51 19.30L413.51 19.30Q412.11 19.30 410.89 20.09Q409.66 20.88 408.92 22.52Q408.17 24.15 408.17 26.70L408.17 26.70Q408.17 30.46 410.13 32.46Q412.09 34.45 415.64 34.45L415.64 34.45Q417.73 34.45 419.74 33.75Q421.74 33.05 423.46 31.59L423.46 31.59L423.94 31.80L423.94 39.22Q421.90 40.71 419.13 41.41Q416.36 42.10 413.76 42.10ZM454.99 41.59L430.10 41.59L430.10 35.53L432.91 35.53L432.91 19.67L430.10 19.67L430.10 13.61L454.99 13.61L454.99 24.73L449.19 24.73L448.58 19.58L441.84 19.58L441.84 24.33L446.59 24.33L446.59 30.30L441.84 30.30L441.84 35.61L448.58 35.61L449.19 29.69L454.99 29.69L454.99 41.59Z" transform="translate(0, 0)"></path></g></svg></svg>
                </g>
            </svg>
        